<?xml version="1.0" encoding="utf-8"?>
<!-- Generator: Adobe Illustrator 22.1.0, SVG Export Plug-In . SVG Version: 6.00 Build 0)  -->
<svg version="1.1" id="Layer_1" xmlns="http://www.w3.org/2000/svg" xmlns:xlink="http://www.w3.org/1999/xlink" x="0px" y="0px"
	 viewBox="0 0 78.9 70" style="enable-background:new 0 0 78.9 70;" xml:space="preserve">
<style type="text/css">
	.st0{fill:#97E586;}
</style>
<g>
	<g>
		<path class="st0" d="M30.2,49c-3.1,0-5.3-0.1-6.7-0.3c-2.1-0.3-3.9-1-5.3-2.1c-1.3-1-2.3-2.4-3-4.2c-0.6-1.8-1-3.9-1-6.4
			c0-2.7,0.4-5,1.1-6.8c0.8-1.8,1.9-3.3,3.4-4.3c1.3-0.9,3.1-1.5,5.1-1.7c1.3-0.2,3.4-0.2,6.3-0.2h2v4.6l-2.2,0
			c-4.6,0-7.4,0.4-8.7,1.2c-0.8,0.5-1.3,1.2-1.7,2.2c-0.5,1.2-0.8,2.9-0.8,5c0,2,0.2,3.6,0.7,4.8c0.3,0.9,0.9,1.7,1.5,2.2
			c1.3,1,4.1,1.4,9,1.4l2.2,0V49H30.2z"/>
		<path class="st0" d="M43.1,49c-2.8,0-5.1-0.8-6.8-2.6c-1.7-1.7-2.6-4-2.6-6.9V23h4.6v7.1h5.5v4h-5.5v5.5c0,1.5,0.4,2.7,1.3,3.5
			c0.8,0.8,2,1.2,3.6,1.2h0.6V49H43.1z"/>
		<path class="st0" d="M45.5,49v-9.4c0-2.8,0.8-5,2.3-6.6c1.8-1.9,4.6-2.8,8.3-2.8h0.9v4.6H56c-2.5,0-4.1,0.5-5,1.4
			c-0.7,0.7-1,1.8-1,3.5V49H45.5z"/>
		<rect x="58.3" y="23" class="st0" width="4.6" height="26"/>
	</g>
	<path class="st0" d="M62.1,69.3c-10.7,0-21.4,0.1-32.2,0.4c-2.7,0-5.4,0.1-8,0.2l-4,0.1c-1.4,0-2.8-0.1-4.2-0.5
		c-2.7-0.7-5.3-2-7.4-4c-2.1-2-3.7-4.5-4.6-7.2C1.3,56.9,1,55.5,1,54l0-0.3l0-0.3l0-0.5l0-1l-0.1-2l-0.3-8
		c-0.2-5.4-0.3-10.7-0.4-16.1l-0.1-4l0-2l0-1l0-0.5c0-0.1,0-0.2,0-0.3l0-0.3c0-0.8,0.1-1.5,0.2-2.3c0.1-0.8,0.3-1.5,0.5-2.3
		c0.4-1.5,1-2.9,1.8-4.3c1.6-2.7,3.9-5,6.6-6.5c1.4-0.8,2.8-1.4,4.3-1.8C14.9,0.2,16.4,0,18,0c10.7,0,21.4,0.1,32.2,0.3
		c2.7,0.1,5.4,0.1,8,0.2l2,0.1l2,0.1c1.5,0.1,3,0.3,4.4,0.7l0.5,0.2c0.2,0.1,0.4,0.1,0.5,0.2c0.4,0.1,0.7,0.3,1,0.4
		c0.7,0.3,1.3,0.7,2,1.1C72,4,73.2,4.9,74.2,6c2,2.1,3.5,4.8,4.2,7.6c0.4,1.4,0.5,2.9,0.5,4.3l0,0.3l0,0.3l0,0.5l0,1l-0.1,2l-0.3,8
		c-0.2,5.4-0.3,10.7-0.4,16.1l-0.2,8c-0.1,2.7-0.9,5.4-2.3,7.7c-1.4,2.3-3.4,4.2-5.8,5.5c-1.2,0.7-2.4,1.2-3.7,1.5
		C64.8,69.2,63.5,69.3,62.1,69.3z M62.1,69.3c1.3,0,2.7-0.2,4-0.5c1.3-0.4,2.5-0.9,3.7-1.5c2.3-1.3,4.3-3.3,5.6-5.6
		c0.7-1.2,1.2-2.4,1.5-3.7c0.2-0.6,0.3-1.3,0.4-1.9c0.1-0.7,0.1-1.3,0.1-2c0-1.3,0-2.7-0.1-4l-0.1-4c-0.1-5.4-0.3-10.7-0.4-16.1
		l-0.3-8l-0.1-2l0-1l0-0.5l0-0.2l0-0.2c-0.1-1.2-0.3-2.5-0.7-3.6C75.1,12,73.8,9.9,72,8.2c-1.8-1.6-4-2.8-6.3-3.3
		c-1.1-0.3-2.3-0.4-3.5-0.4l-4,0.1c-2.7,0.1-5.4,0.1-8,0.2C39.4,5.1,28.7,5.2,18,5.2c-1.1,0-2.2,0.1-3.3,0.4
		c-1.1,0.3-2.1,0.7-3.1,1.3c-2,1.1-3.6,2.7-4.8,4.6c-1.2,1.9-1.9,4.1-2,6.4l-0.2,8c-0.1,5.4-0.3,10.7-0.4,16.1l-0.3,8l-0.1,2l0,1
		l0,0.5l0,0.2l0,0.2c0,1.2,0.1,2.4,0.4,3.6C4.8,60,6,62.3,7.7,64.1c0.9,0.9,1.8,1.7,2.9,2.4c0.5,0.3,1.1,0.6,1.7,0.9
		c0.3,0.1,0.6,0.3,0.9,0.4c0.1,0.1,0.3,0.1,0.4,0.2l0.5,0.1c1.2,0.4,2.5,0.6,3.8,0.6c1.3,0,2.7,0.1,4,0.1c2.7,0.1,5.4,0.1,8,0.2
		C40.7,69.2,51.4,69.3,62.1,69.3z"/>
	<circle class="st0" cx="67.2" cy="58.5" r="3.4"/>
</g>
</svg>
